<?xml version="1.0" encoding="utf-8"?>
<!-- Generator: Adobe Illustrator 21.0.0, SVG Export Plug-In . SVG Version: 6.00 Build 0)  -->
<svg version="1.1" id="Layer_2" xmlns="http://www.w3.org/2000/svg" xmlns:xlink="http://www.w3.org/1999/xlink" x="0px" y="0px"
	 viewBox="0 0 737 721.9" style="enable-background:new 0 0 737 721.9;" xml:space="preserve">
<style type="text/css">
	.st0{fill:none;stroke:#5E4041;stroke-width:6.2473;stroke-linecap:square;stroke-miterlimit:3;}
	.st1{fill:#FFFFFF;stroke:#5E4041;stroke-width:6.2473;stroke-linecap:square;stroke-miterlimit:3;}
	.st2{fill:none;stroke:#5E4041;stroke-width:5.7408;stroke-linecap:square;stroke-miterlimit:3;}
	.st3{fill:#AFB998;stroke:#5E4041;stroke-width:5.7408;stroke-linecap:square;stroke-miterlimit:3;}
	.st4{fill:#CD7B3D;stroke:#5E4041;stroke-width:5.7408;stroke-linecap:square;stroke-miterlimit:3;}
	.st5{fill:#5D3429;stroke:#5D3429;stroke-width:5.7408;stroke-linecap:square;stroke-miterlimit:3;}
</style>
<g transform="matrix(-0.942459,0.334322,0.334322,0.942459,372.553,133.225)">
	<ellipse class="st0" cx="79.9" cy="213.3" rx="339.8" ry="-330.8"/>
</g>
<g transform="matrix(-0.942459,0.334322,0.334322,0.942459,372.553,133.225)">
	<ellipse class="st1" cx="79.9" cy="213.3" rx="339.8" ry="-330.8"/>
</g>
<g transform="matrix(0.596269,0.802785,0.802785,-0.596269,326.787,81.6534)">
	<path class="st2" d="M-13.3-312.8h146.2l133.5,179.4l-224.8-29L-13.3-312.8z"/>
</g>
<g transform="matrix(0.300293,-0.953847,-0.953847,-0.300293,338.978,98.3085)">
	<path class="st2" d="M-143.6,78.2h150L-34.2-64l-217.9-56.9L-143.6,78.2"/>
</g>
<g transform="matrix(0.883231,-0.468938,-0.468938,-0.883231,349.008,86.7274)">
	<path class="st2" d="M6.3-75.1h150.4l-48.3-144.5l-217.4-48.9L6.3-75.1z"/>
</g>
<g transform="matrix(0.758701,-0.651438,-0.651438,-0.758701,359.797,115.382)">
	<path class="st2" d="M-154.9-209.2H68l68.1-118.3L-0.6-346.7L-154.9-209.2"/>
</g>
<g transform="matrix(1,0,0,1,350.81,136.387)">
	<path class="st2" d="M27.8,238.6l-9.2,202.8l-109.9,69l-40.9-134.3L27.8,238.6l129.1,145.8l135.3-27.1l-57.7-114.9L27.8,238.6
		l-9.2,202.8l110.4,64.8l28.7-122.7L27.8,238.6l-159.2,137.2l-132.1-13.1l67.7-124.3L27.8,238.6"/>
</g>
<g transform="matrix(0.470936,-0.882168,-0.882168,-0.470936,332.005,126.88)">
	<path class="st3" d="M-416.4,22.8h98.1l85.9-149.5L-383-74.3L-416.4,22.8z"/>
</g>
<g transform="matrix(1,0,0,1,327.423,100.305)">
	<path class="st2" d="M-162.2,176.7l-10.3,27.6l-12.2-24.8l45.3-11.8c0,0-1.6,14.2-13.5,38.3c-11.9,24.1-22.3,32.9-22.3,32.9
		l-48.8-72c0,0,18-2.6,58-14.6c40-12,47.2-15,47.2-15s-0.6,44.8-11.1,67.9c-10.3,22.6-30.2,50.1-30.2,50.1s28.5-5.1,77.4-3.9
		c62.1,1.5,86.9,5.2,86.9,5.2l-105-104.5c0,0,4,28.4-2.7,46.4c-8.4,22.4-18.6,34-18.6,34l82.2,2.9l-41.8-34.6l-6,14.6l19.3-0.1"/>
</g>
<g transform="matrix(1,0,0,1,340.989,114.303)">
	<path class="st2" d="M-52,452.5l15.6,5.4l-24.9,13.9L-74.4,435c0,0,18.4-9.3,42.5,2.5c24.1,11.9,27.5,23.3,27.5,23.3l-66.5,41.9
		c0,0-2.7-12.1-14.7-52c-7.2-23.9-15-33.5-15-33.5s21.1-15.8,60.6,1.7c42.1,18.7,47.8,29.9,47.8,29.9s1,5.4,5.8-81.4
		c4.8-86.8,4.2-67.8,4.2-67.8L-81,391.1c0,0,21.4-7.2,43.2,2.4C-15.9,403.2-5,412.1-5,412.1l1-68.6l-37.5,33.1l21.6,4.7l-4.6-13.7
		l-1.3-3.6"/>
</g>
<g transform="matrix(1,0,0,1,363.159,96.5646)">
	<path class="st2" d="M128.1,70.7l-28-15.8l25.7-10.2l8.2,46.1c0,0-14-2.7-37.1-16.4C73.7,60.7,68.8,54.2,68.8,54.2l71.9-36.5
		c0,0,2,7,10.8,47.8c8.8,40.8,11.2,48.2,11.2,48.2s-22.2,11.6-66.8-16.4C74.6,84,45.4,66.2,45.4,66.2s1.2,22.5-2.6,74
		c-7.4,99.5-7.7,99.3-7.7,99.3l111.6-107.2c0,0-31.7-2-46.1-8.3c-21.9-9.5-33-15.2-33-15.2l-8.3,83l45.7-47.3l-22.4-6.1l3.6,20.2"/>
</g>
<g transform="matrix(1,0,0,1,371.077,113.467)">
	<path class="st2" d="M192.4,340.9l10.8-15.9l14,28.1l-46.4,10.4c0,0,1.2-19.5,9.1-33.5c8.7-15.4,29.4-28.5,29.4-28.5l39.7,66.6
		c0,0-26.8,2.8-53.9,8.1c-21,4.1-49,9.1-49,9.1s-0.6-20.5,14.2-55.4c15.4-36.3,44-50.4,44-50.4s-28.5,0.7-86.2,2.3l-68.4,2.6
		l80.9,86.1c0,0-0.9-22.5,10.4-43.5c11.3-21,19.5-30.6,19.5-30.6l-72.6,4l34.2,33.3l9-20.7l-20.4,5"/>
</g>
<g transform="matrix(0.738045,-0.674752,-0.674752,-0.738045,362.383,111.758)">
	<path class="st3" d="M-127.9-220.9H40.8l52.7-89.6l-107.7-16.6L-127.9-220.9z"/>
</g>
<g transform="matrix(0.0220352,0.999757,0.999757,-0.0220352,367.816,116.252)">
	<path class="st4" d="M300.2,17.9l150.7,0l42.2,63.9L404.7,109L300.2,17.9z"/>
</g>
<g transform="matrix(-0.213099,0.977031,0.977031,0.213099,357.009,88.168)">
	<path class="st4" d="M23.3-81.1h121.1l97.7,141L65.5,27.5L23.3-81.1z"/>
</g>
<g transform="matrix(1,0,0,1,320.574,76.2704)">
	<path class="st5" d="M-217.9,145.4l102.4-25.3l24.9-98.3l-14,20l-27.2-1.6l-9.1,29.9l-19.8-0.7l-7.5,29.5l-24.1,8.9l-2.6,27.2
		L-217.9,145.4z"/>
</g>
<g transform="matrix(1,0,0,1,340.077,132.828)">
	<path class="st5" d="M-59.4,524.7l89.7-55.6l87.7,50.9l-24-4L76,536.7l-27.8-14.4l-13.4,14.7L8.5,521.6l-23.2,11l-21.3-17.1
		L-59.4,524.7z"/>
</g>
<g transform="matrix(1,0,0,1,362.136,76.9098)">
	<path class="st5" d="M119.8-2.9l-92.9,50L-57.6-9l23.8,5.4L-14.7-23L12.2-6.9l14.2-13.8L51.8-3.9l23.8-9.6L95.7,4.9L119.8-2.9z"/>
</g>
<g transform="matrix(1,0,0,1,378.323,135.439)">
	<path class="st5" d="M251.3,379l-102.5,25.3l-24.9,98.3l14-20l27.2,1.5l9.1-29.9l19.8,0.7l7.5-29.5l24.1-8.9l2.6-27.2L251.3,379z"
		/>
</g>
<g transform="matrix(1,0,0,1,316.791,117.095)">
	<path class="st5" d="M-248.6,176.6l60.1,86.8l-46.4,90.2l2.7-24.2l-21.5-16.9l13-28.5l-15.3-12.6l13.9-27l-12.2-22.6l16-22.1
		L-248.6,176.6z"/>
</g>
<g transform="matrix(1,0,0,1,335.248,122.357)">
	<path class="st5" d="M-98.7,509.3l-36.4-99l-100.4-14l21.4,11.7l1.5,27.3l30.7,5.8l1.5,19.8l30.1,4.2l11.5,22.9l27.3-0.4
		L-98.7,509.3z"/>
</g>
<g transform="matrix(1,0,0,1,370.001,92.9489)">
	<path class="st5" d="M183.7,16.4l13.1,104.7l94.7,36.2l-18.2-16.2l4.7-26.9l-28.7-12.6l3-19.6l-28.4-10.9l-6-24.9l-26.7-5.8
		L183.7,16.4z"/>
</g>
<g transform="matrix(1,0,0,1,381.263,98.6147)">
	<path class="st5" d="M275.2,380l-44-95.9l61.4-80.7l-6.9,23.4l18.2,20.3L286,272.9l12.9,15.1l-18.4,24.2l8,24.4l-19.6,19L275.2,380
		z"/>
</g>
<g transform="matrix(1,0,0,1,327.028,113.824)">
	<path class="st2" d="M-165.4,334c0,0-4.3-6-7-3.8c-2.7,2.2-10.5,7.8-6.1,13.6c4.4,5.8,11.5,15,15.4,14.4
		c3.9-0.6,13.7-8.3,19.5-13.4c5.7-5.1,11.2-16.2,17.2-18.4c5.9-2.2,23.7-6.6,26.1-9.2c2.4-2.6,7-11.4,13.1-13.6
		c6.5-1.5,12.9,1.6,14.6,7.3c1.6,5.7-3,10-7.1,11.2c-4.1,1.2-12-0.9-14.6-5.1c-2.6-4.2-1.8-3.8-1.8-3.8"/>
</g>
<g transform="matrix(1,0,0,1,328.548,118.669)">
	<path class="st2" d="M-153.1,346.5c0,0,3,5.1,2.9,9.7c-0.1,4.6,0.1,10.1,0.1,10.1"/>
</g>
<g transform="matrix(1,0,0,1,329.413,118.032)">
	<path class="st2" d="M-146.1,340.6c0,0,4.7,4,6,7.8c1.4,3.9,4.5,12.7,4.5,12.7"/>
</g>
<g transform="matrix(0.348853,0.937177,0.937177,-0.348853,332.712,114.129)">
	<path class="st2" d="M259.5-237.6l23.3,0"/>
</g>
<g transform="matrix(0.580057,0.814576,0.814576,-0.580057,333.787,113.173)">
	<path class="st2" d="M193.4-285.3h21.2"/>
</g>
<g transform="matrix(1,0,0,1,326.417,110.49)">
	<path class="st2" d="M-170.4,313.5c0,0,12.7,1.3,17.2,3.1c4.4,1.8,7.9,6.7,7.9,6.7s9.1-8.4,16.6-12.1c7.5-3.7,15.4-5.9,15.4-5.9
		s-1.5-9.3-5.9-12.3c-4.4-3-10.3-3-10.3-3s-12.7,0.2-17,2.7c-4.2,2.5-8,4.6-8,4.6"/>
</g>
<g transform="matrix(0.944227,-0.329296,-0.329296,-0.944227,340.789,85.8809)">
	<path class="st2" d="M-84.6-70.5h37.4"/>
</g>
<g transform="matrix(0.312242,0.950003,0.950003,-0.312242,348.028,89.8264)">
	<path class="st2" d="M105-66.7h63.9"/>
</g>
<g transform="matrix(1,0,0,1,348.075,96.4313)">
	<path class="st2" d="M5.5,162.9l-34.7,12.3l3.7,10.4"/>
</g>
<g transform="matrix(0.352662,0.935751,0.935751,-0.352662,348.744,94.1082)">
	<path class="st2" d="M156.3-53.7h11"/>
</g>
<g transform="matrix(0.340055,-0.940405,-0.940405,-0.340055,339.263,87.6782)">
	<path class="st2" d="M-136.5,32.1h19.1"/>
</g>
<g transform="matrix(0.95805,0.286603,0.286603,-0.95805,346.437,82.8891)">
	<path class="st2" d="M13.7-78.1h23.6"/>
</g>
<g transform="matrix(1,0,0,1,337.585,85.8981)">
	<path class="st2" d="M-79.7,105.1c0,0,26.5,30.6,59.6,19.4c33.1-11.2,33.4-55,33.4-55"/>
</g>
<g transform="matrix(-0.661233,0.750181,0.750181,0.661233,343.828,91.6539)">
	<path class="st2" d="M143.2,37.8c0,0-5.1,14.5-8.7,16.8c-3.5,2.3,8.7,24.3,8.7,24.3s5.1-2.3,8.6-5c3.6-2.7,1.1-18.7,1.1-18.7"/>
</g>
<g transform="matrix(1,0,0,1,348.15,91.1967)">
	<path class="st2" d="M6.1,109.5c0,0-2.1,4.6-5.1,7.8c-3,3.2-7.3,7.9-7.3,7.9l4.3,17.8l10.5,0.2c0,0,4.7-0.2,5.2-3.1
		C14.2,137.2,12,126,12,126"/>
</g>
<g transform="matrix(-0.941974,0.335685,0.335685,0.941974,341.749,86.6674)">
	<ellipse class="st2" cx="79.3" cy="83.5" rx="1.3" ry="-1.3"/>
</g>
<g transform="matrix(-0.941974,0.335685,0.335685,0.941974,344.651,85.7329)">
	<ellipse class="st2" cx="54.6" cy="84.3" rx="1.3" ry="-1.3"/>
</g>
<g transform="matrix(1,0,0,1,364.851,96.7854)">
	<path class="st2" d="M141.8,193.7c0,0,18.2,17.5,39.2,10c20.9-7.6,43.2-32.7,43.2-32.7"/>
</g>
<g transform="matrix(0.154577,0.987981,0.987981,-0.154577,372.804,98.844)">
	<path class="st2" d="M207.7,140.7h63.9"/>
</g>
<g transform="matrix(0.39038,-0.920654,-0.920654,-0.39038,369.952,106.361)">
	<path class="st2" d="M-166.3-243h9.7l13-16.6l11.7-16.7l-0.4-9"/>
</g>
<g transform="matrix(1,0,0,1,373.712,100.331)">
	<path class="st2" d="M213.8,193.8L195,206.5l0.5,10.8l29.7-3l0.7-9.7l-4.4-0.9"/>
</g>
<g transform="matrix(1,0,0,1,363.31,100.646)">
	<path class="st2" d="M129.3,227.2l0.5,9.9l34.6-7.2l0.4-19.3l-15.5,4.4l-13-4.8"/>
</g>
<g transform="matrix(-0.942202,0.335045,0.335045,0.942202,369.146,95.9621)">
	<ellipse transform="matrix(0.9422 -0.335 0.335 0.9422 -80.7875 -21.6104)" class="st2" cx="-103" cy="223.4" rx="7.6" ry="7.6"/>
</g>
<g transform="matrix(-0.942391,0.334513,0.334513,0.942391,356.133,119.94)">
	
		<ellipse transform="matrix(0.9424 -0.3345 0.3345 0.9424 -120.7196 42.0147)" class="st2" cx="61.6" cy="371.5" rx="7.6" ry="7.6"/>
</g>
<g transform="matrix(0.334296,0.942468,0.942468,-0.334296,360.509,121.377)">
	<path class="st2" d="M376.3-65.2h76"/>
</g>
<g transform="matrix(1,0,0,1,357.438,127.851)">
	<path class="st2" d="M81.6,450.4l11.2-8.9l11.2-0.6"/>
</g>
<g transform="matrix(-0.898608,0.438751,0.438751,0.898608,358.462,126.784)">
	<path class="st2" d="M87.5,422.9H110"/>
</g>
<g transform="matrix(1,0,0,1,358.31,124.35)">
	<path class="st2" d="M88.7,368.9c0,0,4.1,1.6-3,8.3c-7,6.7-32.1,17.1-32.1,17.1s-7.7,2.7-6.3,5.8c1.4,3,5.7,11.7,11.3,12
		c5.6,0.3,20.7-2.9,20.7-2.9"/>
</g>
<g transform="matrix(1,0,0,1,357.501,127.729)">
	<path class="st2" d="M82.1,411.7c0,0-0.5,4.2-6,6.9c-5.5,2.7-13,6.4-13,6.4s-6.5,3.1-6.2,7c0.3,3.8,3.5,7.7,7.2,7.9
		c3.7,0.1,11.9-0.8,15.5-2.8c3.7-2,9.6-5,9.6-5"/>
</g>
<g transform="matrix(1,0,0,1,358.91,123.995)">
	<path class="st2" d="M93.6,387.2l1.6,4.1l-4.8,7.7l6.3,10.5l12.5-8.8l9.6-1.7l-11.3-6.7"/>
</g>
<g transform="matrix(-0.414544,0.910029,0.910029,0.414544,361.836,123.948)">
	<path class="st2" d="M315.2,270.9h12.1"/>
</g>
</svg>
