<?xml version="1.0" encoding="utf-8"?>
<!-- Generator: Adobe Illustrator 21.0.0, SVG Export Plug-In . SVG Version: 6.00 Build 0)  -->
<svg version="1.1" id="Layer_1" xmlns="http://www.w3.org/2000/svg" xmlns:xlink="http://www.w3.org/1999/xlink" x="0px" y="0px"
	 viewBox="0 0 114 114.1" style="enable-background:new 0 0 114 114.1;" xml:space="preserve">
<style type="text/css">
	.st0{fill:none;}
	.st1{fill:#FFFFFF;}
	.st2{fill:#D8B4FE;}
	.st3{fill:#A855F7;}
</style>
<title>lodging.svg</title>
<rect x="7" y="7" class="st0" width="100" height="100"/>
<g>
	<path class="st1" d="M27.5,110.6c-13.2-0.1-24-10.9-24-24.1v-59c0-13.2,10.8-24,24-24h59.1c13.2,0,23.9,10.8,23.9,24v59.1
		c0,13.2-10.8,24-24,24H27.5z"/>
	<path class="st2" d="M86.6,7C97.8,7,107,16.2,107,27.5v59.1c0,11.3-9.2,20.5-20.5,20.5h-59C16.2,107,7,97.8,7,86.5v-59
		C7,16.2,16.2,7,27.5,7H86.6 M86.6,0H27.5C12.3,0,0,12.3,0,27.5v59c0,15.1,12.3,27.5,27.4,27.6l0,0h0h59c15.2,0,27.5-12.3,27.5-27.5
		V27.5C114,12.3,101.7,0,86.6,0L86.6,0z"/>
</g>
<path class="st3" d="M22.9,32c-1.4,0-2.3,0.9-2.3,2.3v34.1v9.1c0,1.4,0.9,2.3,2.3,2.3s2.3-0.9,2.3-2.3v-6.8h59.1v6.8
	c0,1.4,0.9,2.3,2.3,2.3s2.3-0.9,2.3-2.3v-9.1c0-1.4-0.9-2.3-2.3-2.3H25.2V34.3C25.2,32.9,24.3,32,22.9,32z M36.5,34.3
	c-3.6,0-6.8,3.2-6.8,6.8l0,0c0,3.6,3.2,6.8,6.8,6.8l0,0c3.6,0,6.8-3.2,6.8-6.8l0,0C43.4,37.5,40.2,34.3,36.5,34.3L36.5,34.3z
	 M52.5,38.8c-6.8,0-6.8,6.8-6.8,6.8v6.8H32c-1.4,0-2.3,0.9-2.3,2.3v4.5c0,1.4,0.9,2.3,2.3,2.3h15.9h40.9V50.2
	c0-11.4-11.4-11.4-11.4-11.4S52.5,38.8,52.5,38.8z"/>
</svg>
